<?xml version="1.0" encoding="utf-8" standalone="no"?>
<!DOCTYPE svg PUBLIC "-//W3C//DTD SVG 1.1//EN"
  "http://www.w3.org/Graphics/SVG/1.1/DTD/svg11.dtd">
<svg xmlns:xlink="http://www.w3.org/1999/xlink" width="1493.03pt" height="786.7425pt" viewBox="0 0 1493.03 786.7425" xmlns="http://www.w3.org/2000/svg" version="1.1">
 <metadata>
  <rdf:RDF xmlns:dc="http://purl.org/dc/elements/1.1/" xmlns:cc="http://creativecommons.org/ns#" xmlns:rdf="http://www.w3.org/1999/02/22-rdf-syntax-ns#">
   <cc:Work>
    <dc:type rdf:resource="http://purl.org/dc/dcmitype/StillImage"/>
    <dc:date>2022-06-14T19:23:11.738195</dc:date>
    <dc:format>image/svg+xml</dc:format>
    <dc:creator>
     <cc:Agent>
      <dc:title>Matplotlib v3.5.1, https://matplotlib.org/</dc:title>
     </cc:Agent>
    </dc:creator>
   </cc:Work>
  </rdf:RDF>
 </metadata>
 <defs>
  <style type="text/css">*{stroke-linejoin: round; stroke-linecap: butt}</style>
 </defs>
 <g id="figure_1">
  <g id="patch_1">
   <path d="M 0 786.7425 
L 1493.03 786.7425 
L 1493.03 0 
L 0 0 
z
" style="fill: #ffffff"/>
  </g>
  <g id="axes_1">
   <g id="patch_2">
    <path d="M 104.6825 700 
L 695.2575 700 
L 695.2575 148 
L 104.6825 148 
L 104.6825 700 
z
" style="fill: none"/>
   </g>
   <g id="matplotlib.axis_1">
    <g id="xtick_1">
     <g id="line2d_1">
      <defs>
       <path id="mc3394e81bd" d="M 0 0 
L 0 3.5 
" style="stroke: #000000; stroke-width: 0.8"/>
      </defs>
      <g>
       <use xlink:href="#mc3394e81bd" x="104.6825" y="700" style="stroke: #000000; stroke-width: 0.8"/>
      </g>
     </g>
     <g id="text_1">
      <!-- 2014-11-02 -->
      <g transform="translate(81.43625 713.07875)scale(0.08 -0.08)">
       <defs>
        <path id="DejaVuSans-32" d="M 1228 531 
L 3431 531 
L 3431 0 
L 469 0 
L 469 531 
Q 828 903 1448 1529 
Q 2069 2156 2228 2338 
Q 2531 2678 2651 2914 
Q 2772 3150 2772 3378 
Q 2772 3750 2511 3984 
Q 2250 4219 1831 4219 
Q 1534 4219 1204 4116 
Q 875 4013 500 3803 
L 500 4441 
Q 881 4594 1212 4672 
Q 1544 4750 1819 4750 
Q 2544 4750 2975 4387 
Q 3406 4025 3406 3419 
Q 3406 3131 3298 2873 
Q 3191 2616 2906 2266 
Q 2828 2175 2409 1742 
Q 1991 1309 1228 531 
z
" transform="scale(0.015625)"/>
        <path id="DejaVuSans-30" d="M 2034 4250 
Q 1547 4250 1301 3770 
Q 1056 3291 1056 2328 
Q 1056 1369 1301 889 
Q 1547 409 2034 409 
Q 2525 409 2770 889 
Q 3016 1369 3016 2328 
Q 3016 3291 2770 3770 
Q 2525 4250 2034 4250 
z
M 2034 4750 
Q 2819 4750 3233 4129 
Q 3647 3509 3647 2328 
Q 3647 1150 3233 529 
Q 2819 -91 2034 -91 
Q 1250 -91 836 529 
Q 422 1150 422 2328 
Q 422 3509 836 4129 
Q 1250 4750 2034 4750 
z
" transform="scale(0.015625)"/>
        <path id="DejaVuSans-31" d="M 794 531 
L 1825 531 
L 1825 4091 
L 703 3866 
L 703 4441 
L 1819 4666 
L 2450 4666 
L 2450 531 
L 3481 531 
L 3481 0 
L 794 0 
L 794 531 
z
" transform="scale(0.015625)"/>
        <path id="DejaVuSans-34" d="M 2419 4116 
L 825 1625 
L 2419 1625 
L 2419 4116 
z
M 2253 4666 
L 3047 4666 
L 3047 1625 
L 3713 1625 
L 3713 1100 
L 3047 1100 
L 3047 0 
L 2419 0 
L 2419 1100 
L 313 1100 
L 313 1709 
L 2253 4666 
z
" transform="scale(0.015625)"/>
        <path id="DejaVuSans-2d" d="M 313 2009 
L 1997 2009 
L 1997 1497 
L 313 1497 
L 313 2009 
z
" transform="scale(0.015625)"/>
       </defs>
       <use xlink:href="#DejaVuSans-32"/>
       <use xlink:href="#DejaVuSans-30" x="63.623047"/>
       <use xlink:href="#DejaVuSans-31" x="127.246094"/>
       <use xlink:href="#DejaVuSans-34" x="190.869141"/>
       <use xlink:href="#DejaVuSans-2d" x="254.492188"/>
       <use xlink:href="#DejaVuSans-31" x="290.576172"/>
       <use xlink:href="#DejaVuSans-31" x="354.199219"/>
       <use xlink:href="#DejaVuSans-2d" x="417.822266"/>
       <use xlink:href="#DejaVuSans-30" x="453.90625"/>
       <use xlink:href="#DejaVuSans-32" x="517.529297"/>
      </g>
     </g>
    </g>
    <g id="xtick_2">
     <g id="line2d_2">
      <g>
       <use xlink:href="#mc3394e81bd" x="226.332121" y="700" style="stroke: #000000; stroke-width: 0.8"/>
      </g>
     </g>
     <g id="text_2">
      <!-- 2015-10-18 -->
      <g transform="translate(203.085871 713.07875)scale(0.08 -0.08)">
       <defs>
        <path id="DejaVuSans-35" d="M 691 4666 
L 3169 4666 
L 3169 4134 
L 1269 4134 
L 1269 2991 
Q 1406 3038 1543 3061 
Q 1681 3084 1819 3084 
Q 2600 3084 3056 2656 
Q 3513 2228 3513 1497 
Q 3513 744 3044 326 
Q 2575 -91 1722 -91 
Q 1428 -91 1123 -41 
Q 819 9 494 109 
L 494 744 
Q 775 591 1075 516 
Q 1375 441 1709 441 
Q 2250 441 2565 725 
Q 2881 1009 2881 1497 
Q 2881 1984 2565 2268 
Q 2250 2553 1709 2553 
Q 1456 2553 1204 2497 
Q 953 2441 691 2322 
L 691 4666 
z
" transform="scale(0.015625)"/>
        <path id="DejaVuSans-38" d="M 2034 2216 
Q 1584 2216 1326 1975 
Q 1069 1734 1069 1313 
Q 1069 891 1326 650 
Q 1584 409 2034 409 
Q 2484 409 2743 651 
Q 3003 894 3003 1313 
Q 3003 1734 2745 1975 
Q 2488 2216 2034 2216 
z
M 1403 2484 
Q 997 2584 770 2862 
Q 544 3141 544 3541 
Q 544 4100 942 4425 
Q 1341 4750 2034 4750 
Q 2731 4750 3128 4425 
Q 3525 4100 3525 3541 
Q 3525 3141 3298 2862 
Q 3072 2584 2669 2484 
Q 3125 2378 3379 2068 
Q 3634 1759 3634 1313 
Q 3634 634 3220 271 
Q 2806 -91 2034 -91 
Q 1263 -91 848 271 
Q 434 634 434 1313 
Q 434 1759 690 2068 
Q 947 2378 1403 2484 
z
M 1172 3481 
Q 1172 3119 1398 2916 
Q 1625 2713 2034 2713 
Q 2441 2713 2670 2916 
Q 2900 3119 2900 3481 
Q 2900 3844 2670 4047 
Q 2441 4250 2034 4250 
Q 1625 4250 1398 4047 
Q 1172 3844 1172 3481 
z
" transform="scale(0.015625)"/>
       </defs>
       <use xlink:href="#DejaVuSans-32"/>
       <use xlink:href="#DejaVuSans-30" x="63.623047"/>
       <use xlink:href="#DejaVuSans-31" x="127.246094"/>
       <use xlink:href="#DejaVuSans-35" x="190.869141"/>
       <use xlink:href="#DejaVuSans-2d" x="254.492188"/>
       <use xlink:href="#DejaVuSans-31" x="290.576172"/>
       <use xlink:href="#DejaVuSans-30" x="354.199219"/>
       <use xlink:href="#DejaVuSans-2d" x="417.822266"/>
       <use xlink:href="#DejaVuSans-31" x="453.90625"/>
       <use xlink:href="#DejaVuSans-38" x="517.529297"/>
      </g>
     </g>
    </g>
    <g id="xtick_3">
     <g id="line2d_3">
      <g>
       <use xlink:href="#mc3394e81bd" x="347.981743" y="700" style="stroke: #000000; stroke-width: 0.8"/>
      </g>
     </g>
     <g id="text_3">
      <!-- 2016-10-02 -->
      <g transform="translate(324.735493 713.07875)scale(0.08 -0.08)">
       <defs>
        <path id="DejaVuSans-36" d="M 2113 2584 
Q 1688 2584 1439 2293 
Q 1191 2003 1191 1497 
Q 1191 994 1439 701 
Q 1688 409 2113 409 
Q 2538 409 2786 701 
Q 3034 994 3034 1497 
Q 3034 2003 2786 2293 
Q 2538 2584 2113 2584 
z
M 3366 4563 
L 3366 3988 
Q 3128 4100 2886 4159 
Q 2644 4219 2406 4219 
Q 1781 4219 1451 3797 
Q 1122 3375 1075 2522 
Q 1259 2794 1537 2939 
Q 1816 3084 2150 3084 
Q 2853 3084 3261 2657 
Q 3669 2231 3669 1497 
Q 3669 778 3244 343 
Q 2819 -91 2113 -91 
Q 1303 -91 875 529 
Q 447 1150 447 2328 
Q 447 3434 972 4092 
Q 1497 4750 2381 4750 
Q 2619 4750 2861 4703 
Q 3103 4656 3366 4563 
z
" transform="scale(0.015625)"/>
       </defs>
       <use xlink:href="#DejaVuSans-32"/>
       <use xlink:href="#DejaVuSans-30" x="63.623047"/>
       <use xlink:href="#DejaVuSans-31" x="127.246094"/>
       <use xlink:href="#DejaVuSans-36" x="190.869141"/>
       <use xlink:href="#DejaVuSans-2d" x="254.492188"/>
       <use xlink:href="#DejaVuSans-31" x="290.576172"/>
       <use xlink:href="#DejaVuSans-30" x="354.199219"/>
       <use xlink:href="#DejaVuSans-2d" x="417.822266"/>
       <use xlink:href="#DejaVuSans-30" x="453.90625"/>
       <use xlink:href="#DejaVuSans-32" x="517.529297"/>
      </g>
     </g>
    </g>
    <g id="xtick_4">
     <g id="line2d_4">
      <g>
       <use xlink:href="#mc3394e81bd" x="469.631364" y="700" style="stroke: #000000; stroke-width: 0.8"/>
      </g>
     </g>
     <g id="text_4">
      <!-- 2017-09-17 -->
      <g transform="translate(446.385114 713.07875)scale(0.08 -0.08)">
       <defs>
        <path id="DejaVuSans-37" d="M 525 4666 
L 3525 4666 
L 3525 4397 
L 1831 0 
L 1172 0 
L 2766 4134 
L 525 4134 
L 525 4666 
z
" transform="scale(0.015625)"/>
        <path id="DejaVuSans-39" d="M 703 97 
L 703 672 
Q 941 559 1184 500 
Q 1428 441 1663 441 
Q 2288 441 2617 861 
Q 2947 1281 2994 2138 
Q 2813 1869 2534 1725 
Q 2256 1581 1919 1581 
Q 1219 1581 811 2004 
Q 403 2428 403 3163 
Q 403 3881 828 4315 
Q 1253 4750 1959 4750 
Q 2769 4750 3195 4129 
Q 3622 3509 3622 2328 
Q 3622 1225 3098 567 
Q 2575 -91 1691 -91 
Q 1453 -91 1209 -44 
Q 966 3 703 97 
z
M 1959 2075 
Q 2384 2075 2632 2365 
Q 2881 2656 2881 3163 
Q 2881 3666 2632 3958 
Q 2384 4250 1959 4250 
Q 1534 4250 1286 3958 
Q 1038 3666 1038 3163 
Q 1038 2656 1286 2365 
Q 1534 2075 1959 2075 
z
" transform="scale(0.015625)"/>
       </defs>
       <use xlink:href="#DejaVuSans-32"/>
       <use xlink:href="#DejaVuSans-30" x="63.623047"/>
       <use xlink:href="#DejaVuSans-31" x="127.246094"/>
       <use xlink:href="#DejaVuSans-37" x="190.869141"/>
       <use xlink:href="#DejaVuSans-2d" x="254.492188"/>
       <use xlink:href="#DejaVuSans-30" x="290.576172"/>
       <use xlink:href="#DejaVuSans-39" x="354.199219"/>
       <use xlink:href="#DejaVuSans-2d" x="417.822266"/>
       <use xlink:href="#DejaVuSans-31" x="453.90625"/>
       <use xlink:href="#DejaVuSans-37" x="517.529297"/>
      </g>
     </g>
    </g>
    <g id="xtick_5">
     <g id="line2d_5">
      <g>
       <use xlink:href="#mc3394e81bd" x="591.280986" y="700" style="stroke: #000000; stroke-width: 0.8"/>
      </g>
     </g>
     <g id="text_5">
      <!-- 2018-09-02 -->
      <g transform="translate(568.034736 713.07875)scale(0.08 -0.08)">
       <use xlink:href="#DejaVuSans-32"/>
       <use xlink:href="#DejaVuSans-30" x="63.623047"/>
       <use xlink:href="#DejaVuSans-31" x="127.246094"/>
       <use xlink:href="#DejaVuSans-38" x="190.869141"/>
       <use xlink:href="#DejaVuSans-2d" x="254.492188"/>
       <use xlink:href="#DejaVuSans-30" x="290.576172"/>
       <use xlink:href="#DejaVuSans-39" x="354.199219"/>
       <use xlink:href="#DejaVuSans-2d" x="417.822266"/>
       <use xlink:href="#DejaVuSans-30" x="453.90625"/>
       <use xlink:href="#DejaVuSans-32" x="517.529297"/>
      </g>
     </g>
    </g>
   </g>
   <g id="matplotlib.axis_2">
    <g id="ytick_1">
     <g id="line2d_6">
      <defs>
       <path id="m16b02c6c2b" d="M 0 0 
L -3.5 0 
" style="stroke: #000000; stroke-width: 0.8"/>
      </defs>
      <g>
       <use xlink:href="#m16b02c6c2b" x="104.6825" y="700" style="stroke: #000000; stroke-width: 0.8"/>
      </g>
     </g>
     <g id="text_6">
      <!-- 0.0 -->
      <g transform="translate(84.96 703.039375)scale(0.08 -0.08)">
       <defs>
        <path id="DejaVuSans-2e" d="M 684 794 
L 1344 794 
L 1344 0 
L 684 0 
L 684 794 
z
" transform="scale(0.015625)"/>
       </defs>
       <use xlink:href="#DejaVuSans-30"/>
       <use xlink:href="#DejaVuSans-2e" x="63.623047"/>
       <use xlink:href="#DejaVuSans-30" x="95.410156"/>
      </g>
     </g>
    </g>
    <g id="ytick_2">
     <g id="line2d_7">
      <g>
       <use xlink:href="#m16b02c6c2b" x="104.6825" y="627.896625" style="stroke: #000000; stroke-width: 0.8"/>
      </g>
     </g>
     <g id="text_7">
      <!-- 0.5 -->
      <g transform="translate(84.96 630.936)scale(0.08 -0.08)">
       <use xlink:href="#DejaVuSans-30"/>
       <use xlink:href="#DejaVuSans-2e" x="63.623047"/>
       <use xlink:href="#DejaVuSans-35" x="95.410156"/>
      </g>
     </g>
    </g>
    <g id="ytick_3">
     <g id="line2d_8">
      <g>
       <use xlink:href="#m16b02c6c2b" x="104.6825" y="555.79325" style="stroke: #000000; stroke-width: 0.8"/>
      </g>
     </g>
     <g id="text_8">
      <!-- 1.0 -->
      <g transform="translate(84.96 558.832625)scale(0.08 -0.08)">
       <use xlink:href="#DejaVuSans-31"/>
       <use xlink:href="#DejaVuSans-2e" x="63.623047"/>
       <use xlink:href="#DejaVuSans-30" x="95.410156"/>
      </g>
     </g>
    </g>
    <g id="ytick_4">
     <g id="line2d_9">
      <g>
       <use xlink:href="#m16b02c6c2b" x="104.6825" y="483.689875" style="stroke: #000000; stroke-width: 0.8"/>
      </g>
     </g>
     <g id="text_9">
      <!-- 1.5 -->
      <g transform="translate(84.96 486.72925)scale(0.08 -0.08)">
       <use xlink:href="#DejaVuSans-31"/>
       <use xlink:href="#DejaVuSans-2e" x="63.623047"/>
       <use xlink:href="#DejaVuSans-35" x="95.410156"/>
      </g>
     </g>
    </g>
    <g id="ytick_5">
     <g id="line2d_10">
      <g>
       <use xlink:href="#m16b02c6c2b" x="104.6825" y="411.5865" style="stroke: #000000; stroke-width: 0.8"/>
      </g>
     </g>
     <g id="text_10">
      <!-- 2.0 -->
      <g transform="translate(84.96 414.625875)scale(0.08 -0.08)">
       <use xlink:href="#DejaVuSans-32"/>
       <use xlink:href="#DejaVuSans-2e" x="63.623047"/>
       <use xlink:href="#DejaVuSans-30" x="95.410156"/>
      </g>
     </g>
    </g>
    <g id="ytick_6">
     <g id="line2d_11">
      <g>
       <use xlink:href="#m16b02c6c2b" x="104.6825" y="339.483125" style="stroke: #000000; stroke-width: 0.8"/>
      </g>
     </g>
     <g id="text_11">
      <!-- 2.5 -->
      <g transform="translate(84.96 342.5225)scale(0.08 -0.08)">
       <use xlink:href="#DejaVuSans-32"/>
       <use xlink:href="#DejaVuSans-2e" x="63.623047"/>
       <use xlink:href="#DejaVuSans-35" x="95.410156"/>
      </g>
     </g>
    </g>
    <g id="ytick_7">
     <g id="line2d_12">
      <g>
       <use xlink:href="#m16b02c6c2b" x="104.6825" y="267.379751" style="stroke: #000000; stroke-width: 0.8"/>
      </g>
     </g>
     <g id="text_12">
      <!-- 3.0 -->
      <g transform="translate(84.96 270.419126)scale(0.08 -0.08)">
       <defs>
        <path id="DejaVuSans-33" d="M 2597 2516 
Q 3050 2419 3304 2112 
Q 3559 1806 3559 1356 
Q 3559 666 3084 287 
Q 2609 -91 1734 -91 
Q 1441 -91 1130 -33 
Q 819 25 488 141 
L 488 750 
Q 750 597 1062 519 
Q 1375 441 1716 441 
Q 2309 441 2620 675 
Q 2931 909 2931 1356 
Q 2931 1769 2642 2001 
Q 2353 2234 1838 2234 
L 1294 2234 
L 1294 2753 
L 1863 2753 
Q 2328 2753 2575 2939 
Q 2822 3125 2822 3475 
Q 2822 3834 2567 4026 
Q 2313 4219 1838 4219 
Q 1578 4219 1281 4162 
Q 984 4106 628 3988 
L 628 4550 
Q 988 4650 1302 4700 
Q 1616 4750 1894 4750 
Q 2613 4750 3031 4423 
Q 3450 4097 3450 3541 
Q 3450 3153 3228 2886 
Q 3006 2619 2597 2516 
z
" transform="scale(0.015625)"/>
       </defs>
       <use xlink:href="#DejaVuSans-33"/>
       <use xlink:href="#DejaVuSans-2e" x="63.623047"/>
       <use xlink:href="#DejaVuSans-30" x="95.410156"/>
      </g>
     </g>
    </g>
    <g id="ytick_8">
     <g id="line2d_13">
      <g>
       <use xlink:href="#m16b02c6c2b" x="104.6825" y="195.276376" style="stroke: #000000; stroke-width: 0.8"/>
      </g>
     </g>
     <g id="text_13">
      <!-- 3.5 -->
      <g transform="translate(84.96 198.315751)scale(0.08 -0.08)">
       <use xlink:href="#DejaVuSans-33"/>
       <use xlink:href="#DejaVuSans-2e" x="63.623047"/>
       <use xlink:href="#DejaVuSans-35" x="95.410156"/>
      </g>
     </g>
    </g>
    <g id="text_14">
     <!-- $\mathregular {Mean Chlorophyll in upper 200m (mg/m^2)}$ -->
     <g transform="translate(79.28 501.2)rotate(-90)scale(0.08 -0.08)">
      <defs>
       <path id="DejaVuSans-4d" d="M 628 4666 
L 1569 4666 
L 2759 1491 
L 3956 4666 
L 4897 4666 
L 4897 0 
L 4281 0 
L 4281 4097 
L 3078 897 
L 2444 897 
L 1241 4097 
L 1241 0 
L 628 0 
L 628 4666 
z
" transform="scale(0.015625)"/>
       <path id="DejaVuSans-65" d="M 3597 1894 
L 3597 1613 
L 953 1613 
Q 991 1019 1311 708 
Q 1631 397 2203 397 
Q 2534 397 2845 478 
Q 3156 559 3463 722 
L 3463 178 
Q 3153 47 2828 -22 
Q 2503 -91 2169 -91 
Q 1331 -91 842 396 
Q 353 884 353 1716 
Q 353 2575 817 3079 
Q 1281 3584 2069 3584 
Q 2775 3584 3186 3129 
Q 3597 2675 3597 1894 
z
M 3022 2063 
Q 3016 2534 2758 2815 
Q 2500 3097 2075 3097 
Q 1594 3097 1305 2825 
Q 1016 2553 972 2059 
L 3022 2063 
z
" transform="scale(0.015625)"/>
       <path id="DejaVuSans-61" d="M 2194 1759 
Q 1497 1759 1228 1600 
Q 959 1441 959 1056 
Q 959 750 1161 570 
Q 1363 391 1709 391 
Q 2188 391 2477 730 
Q 2766 1069 2766 1631 
L 2766 1759 
L 2194 1759 
z
M 3341 1997 
L 3341 0 
L 2766 0 
L 2766 531 
Q 2569 213 2275 61 
Q 1981 -91 1556 -91 
Q 1019 -91 701 211 
Q 384 513 384 1019 
Q 384 1609 779 1909 
Q 1175 2209 1959 2209 
L 2766 2209 
L 2766 2266 
Q 2766 2663 2505 2880 
Q 2244 3097 1772 3097 
Q 1472 3097 1187 3025 
Q 903 2953 641 2809 
L 641 3341 
Q 956 3463 1253 3523 
Q 1550 3584 1831 3584 
Q 2591 3584 2966 3190 
Q 3341 2797 3341 1997 
z
" transform="scale(0.015625)"/>
       <path id="DejaVuSans-6e" d="M 3513 2113 
L 3513 0 
L 2938 0 
L 2938 2094 
Q 2938 2591 2744 2837 
Q 2550 3084 2163 3084 
Q 1697 3084 1428 2787 
Q 1159 2491 1159 1978 
L 1159 0 
L 581 0 
L 581 3500 
L 1159 3500 
L 1159 2956 
Q 1366 3272 1645 3428 
Q 1925 3584 2291 3584 
Q 2894 3584 3203 3211 
Q 3513 2838 3513 2113 
z
" transform="scale(0.015625)"/>
       <path id="DejaVuSans-43" d="M 4122 4306 
L 4122 3641 
Q 3803 3938 3442 4084 
Q 3081 4231 2675 4231 
Q 1875 4231 1450 3742 
Q 1025 3253 1025 2328 
Q 1025 1406 1450 917 
Q 1875 428 2675 428 
Q 3081 428 3442 575 
Q 3803 722 4122 1019 
L 4122 359 
Q 3791 134 3420 21 
Q 3050 -91 2638 -91 
Q 1578 -91 968 557 
Q 359 1206 359 2328 
Q 359 3453 968 4101 
Q 1578 4750 2638 4750 
Q 3056 4750 3426 4639 
Q 3797 4528 4122 4306 
z
" transform="scale(0.015625)"/>
       <path id="DejaVuSans-68" d="M 3513 2113 
L 3513 0 
L 2938 0 
L 2938 2094 
Q 2938 2591 2744 2837 
Q 2550 3084 2163 3084 
Q 1697 3084 1428 2787 
Q 1159 2491 1159 1978 
L 1159 0 
L 581 0 
L 581 4863 
L 1159 4863 
L 1159 2956 
Q 1366 3272 1645 3428 
Q 1925 3584 2291 3584 
Q 2894 3584 3203 3211 
Q 3513 2838 3513 2113 
z
" transform="scale(0.015625)"/>
       <path id="DejaVuSans-6c" d="M 603 4863 
L 1178 4863 
L 1178 0 
L 603 0 
L 603 4863 
z
" transform="scale(0.015625)"/>
       <path id="DejaVuSans-6f" d="M 1959 3097 
Q 1497 3097 1228 2736 
Q 959 2375 959 1747 
Q 959 1119 1226 758 
Q 1494 397 1959 397 
Q 2419 397 2687 759 
Q 2956 1122 2956 1747 
Q 2956 2369 2687 2733 
Q 2419 3097 1959 3097 
z
M 1959 3584 
Q 2709 3584 3137 3096 
Q 3566 2609 3566 1747 
Q 3566 888 3137 398 
Q 2709 -91 1959 -91 
Q 1206 -91 779 398 
Q 353 888 353 1747 
Q 353 2609 779 3096 
Q 1206 3584 1959 3584 
z
" transform="scale(0.015625)"/>
       <path id="DejaVuSans-72" d="M 2631 2963 
Q 2534 3019 2420 3045 
Q 2306 3072 2169 3072 
Q 1681 3072 1420 2755 
Q 1159 2438 1159 1844 
L 1159 0 
L 581 0 
L 581 3500 
L 1159 3500 
L 1159 2956 
Q 1341 3275 1631 3429 
Q 1922 3584 2338 3584 
Q 2397 3584 2469 3576 
Q 2541 3569 2628 3553 
L 2631 2963 
z
" transform="scale(0.015625)"/>
       <path id="DejaVuSans-70" d="M 1159 525 
L 1159 -1331 
L 581 -1331 
L 581 3500 
L 1159 3500 
L 1159 2969 
Q 1341 3281 1617 3432 
Q 1894 3584 2278 3584 
Q 2916 3584 3314 3078 
Q 3713 2572 3713 1747 
Q 3713 922 3314 415 
Q 2916 -91 2278 -91 
Q 1894 -91 1617 61 
Q 1341 213 1159 525 
z
M 3116 1747 
Q 3116 2381 2855 2742 
Q 2594 3103 2138 3103 
Q 1681 3103 1420 2742 
Q 1159 2381 1159 1747 
Q 1159 1113 1420 752 
Q 1681 391 2138 391 
Q 2594 391 2855 752 
Q 3116 1113 3116 1747 
z
" transform="scale(0.015625)"/>
       <path id="DejaVuSans-79" d="M 2059 -325 
Q 1816 -950 1584 -1140 
Q 1353 -1331 966 -1331 
L 506 -1331 
L 506 -850 
L 844 -850 
Q 1081 -850 1212 -737 
Q 1344 -625 1503 -206 
L 1606 56 
L 191 3500 
L 800 3500 
L 1894 763 
L 2988 3500 
L 3597 3500 
L 2059 -325 
z
" transform="scale(0.015625)"/>
       <path id="DejaVuSans-69" d="M 603 3500 
L 1178 3500 
L 1178 0 
L 603 0 
L 603 3500 
z
M 603 4863 
L 1178 4863 
L 1178 4134 
L 603 4134 
L 603 4863 
z
" transform="scale(0.015625)"/>
       <path id="DejaVuSans-75" d="M 544 1381 
L 544 3500 
L 1119 3500 
L 1119 1403 
Q 1119 906 1312 657 
Q 1506 409 1894 409 
Q 2359 409 2629 706 
Q 2900 1003 2900 1516 
L 2900 3500 
L 3475 3500 
L 3475 0 
L 2900 0 
L 2900 538 
Q 2691 219 2414 64 
Q 2138 -91 1772 -91 
Q 1169 -91 856 284 
Q 544 659 544 1381 
z
M 1991 3584 
L 1991 3584 
z
" transform="scale(0.015625)"/>
       <path id="DejaVuSans-6d" d="M 3328 2828 
Q 3544 3216 3844 3400 
Q 4144 3584 4550 3584 
Q 5097 3584 5394 3201 
Q 5691 2819 5691 2113 
L 5691 0 
L 5113 0 
L 5113 2094 
Q 5113 2597 4934 2840 
Q 4756 3084 4391 3084 
Q 3944 3084 3684 2787 
Q 3425 2491 3425 1978 
L 3425 0 
L 2847 0 
L 2847 2094 
Q 2847 2600 2669 2842 
Q 2491 3084 2119 3084 
Q 1678 3084 1418 2786 
Q 1159 2488 1159 1978 
L 1159 0 
L 581 0 
L 581 3500 
L 1159 3500 
L 1159 2956 
Q 1356 3278 1631 3431 
Q 1906 3584 2284 3584 
Q 2666 3584 2933 3390 
Q 3200 3197 3328 2828 
z
" transform="scale(0.015625)"/>
       <path id="DejaVuSans-28" d="M 1984 4856 
Q 1566 4138 1362 3434 
Q 1159 2731 1159 2009 
Q 1159 1288 1364 580 
Q 1569 -128 1984 -844 
L 1484 -844 
Q 1016 -109 783 600 
Q 550 1309 550 2009 
Q 550 2706 781 3412 
Q 1013 4119 1484 4856 
L 1984 4856 
z
" transform="scale(0.015625)"/>
       <path id="DejaVuSans-67" d="M 2906 1791 
Q 2906 2416 2648 2759 
Q 2391 3103 1925 3103 
Q 1463 3103 1205 2759 
Q 947 2416 947 1791 
Q 947 1169 1205 825 
Q 1463 481 1925 481 
Q 2391 481 2648 825 
Q 2906 1169 2906 1791 
z
M 3481 434 
Q 3481 -459 3084 -895 
Q 2688 -1331 1869 -1331 
Q 1566 -1331 1297 -1286 
Q 1028 -1241 775 -1147 
L 775 -588 
Q 1028 -725 1275 -790 
Q 1522 -856 1778 -856 
Q 2344 -856 2625 -561 
Q 2906 -266 2906 331 
L 2906 616 
Q 2728 306 2450 153 
Q 2172 0 1784 0 
Q 1141 0 747 490 
Q 353 981 353 1791 
Q 353 2603 747 3093 
Q 1141 3584 1784 3584 
Q 2172 3584 2450 3431 
Q 2728 3278 2906 2969 
L 2906 3500 
L 3481 3500 
L 3481 434 
z
" transform="scale(0.015625)"/>
       <path id="DejaVuSans-2f" d="M 1625 4666 
L 2156 4666 
L 531 -594 
L 0 -594 
L 1625 4666 
z
" transform="scale(0.015625)"/>
       <path id="DejaVuSans-29" d="M 513 4856 
L 1013 4856 
Q 1481 4119 1714 3412 
Q 1947 2706 1947 2009 
Q 1947 1309 1714 600 
Q 1481 -109 1013 -844 
L 513 -844 
Q 928 -128 1133 580 
Q 1338 1288 1338 2009 
Q 1338 2731 1133 3434 
Q 928 4138 513 4856 
z
" transform="scale(0.015625)"/>
      </defs>
      <use xlink:href="#DejaVuSans-4d" transform="translate(0 0.765625)"/>
      <use xlink:href="#DejaVuSans-65" transform="translate(86.279297 0.765625)"/>
      <use xlink:href="#DejaVuSans-61" transform="translate(147.802734 0.765625)"/>
      <use xlink:href="#DejaVuSans-6e" transform="translate(209.082031 0.765625)"/>
      <use xlink:href="#DejaVuSans-43" transform="translate(272.460938 0.765625)"/>
      <use xlink:href="#DejaVuSans-68" transform="translate(342.285156 0.765625)"/>
      <use xlink:href="#DejaVuSans-6c" transform="translate(405.664062 0.765625)"/>
      <use xlink:href="#DejaVuSans-6f" transform="translate(433.447266 0.765625)"/>
      <use xlink:href="#DejaVuSans-72" transform="translate(494.628906 0.765625)"/>
      <use xlink:href="#DejaVuSans-6f" transform="translate(535.742188 0.765625)"/>
      <use xlink:href="#DejaVuSans-70" transform="translate(596.923828 0.765625)"/>
      <use xlink:href="#DejaVuSans-68" transform="translate(660.400391 0.765625)"/>
      <use xlink:href="#DejaVuSans-79" transform="translate(723.779297 0.765625)"/>
      <use xlink:href="#DejaVuSans-6c" transform="translate(782.958984 0.765625)"/>
      <use xlink:href="#DejaVuSans-6c" transform="translate(810.742188 0.765625)"/>
      <use xlink:href="#DejaVuSans-69" transform="translate(838.525391 0.765625)"/>
      <use xlink:href="#DejaVuSans-6e" transform="translate(866.308594 0.765625)"/>
      <use xlink:href="#DejaVuSans-75" transform="translate(929.6875 0.765625)"/>
      <use xlink:href="#DejaVuSans-70" transform="translate(993.066406 0.765625)"/>
      <use xlink:href="#DejaVuSans-70" transform="translate(1056.542969 0.765625)"/>
      <use xlink:href="#DejaVuSans-65" transform="translate(1120.019531 0.765625)"/>
      <use xlink:href="#DejaVuSans-72" transform="translate(1181.542969 0.765625)"/>
      <use xlink:href="#DejaVuSans-32" transform="translate(1222.65625 0.765625)"/>
      <use xlink:href="#DejaVuSans-30" transform="translate(1286.279297 0.765625)"/>
      <use xlink:href="#DejaVuSans-30" transform="translate(1349.902344 0.765625)"/>
      <use xlink:href="#DejaVuSans-6d" transform="translate(1413.525391 0.765625)"/>
      <use xlink:href="#DejaVuSans-28" transform="translate(1510.9375 0.765625)"/>
      <use xlink:href="#DejaVuSans-6d" transform="translate(1549.951172 0.765625)"/>
      <use xlink:href="#DejaVuSans-67" transform="translate(1647.363281 0.765625)"/>
      <use xlink:href="#DejaVuSans-2f" transform="translate(1710.839844 0.765625)"/>
      <use xlink:href="#DejaVuSans-6d" transform="translate(1744.53125 0.765625)"/>
      <use xlink:href="#DejaVuSans-32" transform="translate(1842.900391 39.046875)scale(0.7)"/>
      <use xlink:href="#DejaVuSans-29" transform="translate(1890.170898 0.765625)"/>
     </g>
    </g>
   </g>
   <g id="line2d_14">
    <path d="M 131.526818 664.995301 
L 135.124895 638.327384 
L 138.735041 651.034272 
L 142.345428 647.527103 
L 145.943022 663.893919 
L 149.55003 658.790388 
L 153.123729 673.927027 
L 156.702256 670.490379 
L 160.323021 676.041198 
L 163.889479 687.497554 
L 167.455455 688.869812 
L 171.021913 691.680416 
L 174.587164 693.857778 
L 178.154104 694.633783 
L 181.720562 695.826545 
L 195.981084 698.36905 
L 199.547301 698.28823 
L 203.113276 698.69437 
L 210.243778 698.685366 
L 213.80565 698.409991 
L 217.371384 697.952642 
L 220.936394 695.753617 
L 224.504541 695.015887 
L 231.63625 693.189017 
L 235.202708 693.720398 
L 238.767959 690.045049 
L 242.3349 681.554592 
L 245.903772 669.074352 
L 249.538537 669.336983 
L 253.233885 621.295869 
L 256.837514 611.899579 
L 260.450073 624.566099 
L 264.206729 616.852667 
L 267.780428 613.28026 
L 271.369575 604.845693 
L 274.942309 618.921112 
L 278.573936 623.859494 
L 282.154876 644.285456 
L 285.747643 653.928924 
L 289.31386 662.758988 
L 292.880076 682.545673 
L 296.446293 689.192519 
L 300.013716 693.228265 
L 303.580416 695.483228 
L 307.147115 696.216442 
L 310.712366 697.406445 
L 314.277858 697.639196 
L 317.844799 698.468666 
L 321.410292 698.579761 
L 324.97675 699.0632 
L 328.542725 698.899345 
L 332.109183 699.043436 
L 335.674434 699.07604 
L 339.237995 699.286618 
L 346.368498 698.542349 
L 349.934956 697.813308 
L 353.501413 695.337758 
L 357.066906 693.613328 
L 360.633605 691.617445 
L 364.200546 676.900966 
L 367.767728 599.484543 
L 371.337565 547.67295 
L 375.00057 475.9987 
L 378.633887 448.642177 
L 382.249826 440.814576 
L 385.823042 493.441871 
L 389.395534 450.255792 
L 392.973578 609.905629 
L 396.549449 659.278373 
L 400.156457 673.429022 
L 403.734983 685.308446 
L 407.316889 688.931259 
L 414.491562 691.850093 
L 418.064295 690.477281 
L 421.63027 689.722691 
L 425.196728 694.073635 
L 428.76029 695.162031 
L 432.325299 697.317765 
L 435.890792 698.281866 
L 443.023949 698.880503 
L 446.59089 698.793688 
L 450.156382 698.888696 
L 453.721151 699.213567 
L 457.288816 699.103208 
L 460.855998 699.372968 
L 464.421249 699.125514 
L 467.986258 697.767664 
L 471.551751 698.961734 
L 475.11845 697.97457 
L 478.68515 696.109236 
L 482.251125 694.988078 
L 485.816617 695.178613 
L 492.948326 691.318578 
L 496.512371 690.838739 
L 500.078346 678.60806 
L 503.646976 673.359798 
L 507.216089 635.567501 
L 510.783995 610.581057 
L 514.449656 589.993236 
L 518.11435 574.645113 
L 521.74284 589.394484 
L 525.338745 578.781003 
L 528.913409 613.208132 
L 532.522831 629.195696 
L 536.10184 643.955167 
L 539.690987 652.260777 
L 543.264203 670.004639 
L 546.829454 682.577271 
L 550.395429 690.824581 
L 553.961163 693.667641 
L 557.52569 695.709468 
L 568.223133 697.798699 
L 571.789349 698.160853 
L 578.916231 698.557863 
L 582.482206 698.271531 
L 586.048906 698.649789 
L 589.613915 698.722443 
L 593.176511 698.500885 
L 600.310151 698.569715 
L 603.874678 697.851114 
L 607.437757 698.17464 
L 611.002526 696.000746 
L 614.567294 693.499601 
L 618.13158 693.244281 
L 621.695865 692.451315 
L 625.262565 689.400922 
L 628.826367 687.244902 
L 632.392101 681.470893 
L 635.957594 680.953202 
L 639.642322 684.737307 
L 643.218435 673.228182 
L 646.794065 669.400172 
L 650.371384 674.442405 
L 653.99215 662.285899 
L 657.59071 662.885492 
L 661.211476 660.701437 
L 664.803278 664.660976 
L 668.413182 662.528562 
L 668.413182 662.528562 
" clip-path="url(#pd226b851e9)" style="fill: none; stroke: #008000; stroke-width: 3; stroke-linecap: square"/>
   </g>
   <g id="line2d_15">
    <path d="M 131.526818 700 
L 156.702256 700 
L 160.323021 123.173001 
L 217.371384 123.173001 
L 220.936394 700 
L 224.504541 123.173001 
L 228.070758 123.173001 
L 231.63625 700 
L 235.202708 123.173001 
L 238.767959 123.173001 
L 242.3349 700 
L 282.154876 700 
L 285.747643 123.173001 
L 349.934956 123.173001 
L 353.501413 700 
L 357.066906 700 
L 360.633605 123.173001 
L 364.200546 123.173001 
L 367.767728 700 
L 414.491562 700 
L 418.064295 123.173001 
L 450.156382 123.173001 
L 453.721151 700 
L 457.288816 700 
L 460.855998 123.173001 
L 500.078346 123.173001 
L 503.646976 700 
L 539.690987 700 
L 543.264203 123.173001 
L 625.262565 123.173001 
L 628.826367 700 
L 668.413182 700 
L 668.413182 700 
" clip-path="url(#pd226b851e9)" style="fill: none; stroke-dasharray: 2,3.3; stroke-dashoffset: 0; stroke: #0000cd; stroke-width: 2"/>
   </g>
   <g id="patch_3">
    <path d="M 104.6825 700 
L 104.6825 148 
" style="fill: none; stroke: #000000; stroke-width: 0.8; stroke-linejoin: miter; stroke-linecap: square"/>
   </g>
   <g id="patch_4">
    <path d="M 695.2575 700 
L 695.2575 148 
" style="fill: none; stroke: #000000; stroke-width: 0.8; stroke-linejoin: miter; stroke-linecap: square"/>
   </g>
   <g id="patch_5">
    <path d="M 104.6825 700 
L 695.2575 700 
" style="fill: none; stroke: #000000; stroke-width: 0.8; stroke-linejoin: miter; stroke-linecap: square"/>
   </g>
   <g id="patch_6">
    <path d="M 104.6825 148 
L 695.2575 148 
" style="fill: none; stroke: #000000; stroke-width: 0.8; stroke-linejoin: miter; stroke-linecap: square"/>
   </g>
   <g id="text_15">
    <!-- 5904472 -->
    <g transform="translate(378.592 142)scale(0.096 -0.096)">
     <use xlink:href="#DejaVuSans-35"/>
     <use xlink:href="#DejaVuSans-39" x="63.623047"/>
     <use xlink:href="#DejaVuSans-30" x="127.246094"/>
     <use xlink:href="#DejaVuSans-34" x="190.869141"/>
     <use xlink:href="#DejaVuSans-34" x="254.492188"/>
     <use xlink:href="#DejaVuSans-37" x="318.115234"/>
     <use xlink:href="#DejaVuSans-32" x="381.738281"/>
    </g>
   </g>
  </g>
  <g id="axes_2">
   <g id="matplotlib.axis_3">
    <g id="ytick_9">
     <g id="line2d_16">
      <defs>
       <path id="md4bc1dd526" d="M 0 0 
L 3.5 0 
" style="stroke: #000000; stroke-width: 0.8"/>
      </defs>
      <g>
       <use xlink:href="#md4bc1dd526" x="695.2575" y="700" style="stroke: #000000; stroke-width: 0.8"/>
      </g>
     </g>
     <g id="text_16">
      <!-- 0.0 -->
      <g transform="translate(702.2575 703.039375)scale(0.08 -0.08)">
       <use xlink:href="#DejaVuSans-30"/>
       <use xlink:href="#DejaVuSans-2e" x="63.623047"/>
       <use xlink:href="#DejaVuSans-30" x="95.410156"/>
      </g>
     </g>
    </g>
    <g id="ytick_10">
     <g id="line2d_17">
      <g>
       <use xlink:href="#md4bc1dd526" x="695.2575" y="627.896625" style="stroke: #000000; stroke-width: 0.8"/>
      </g>
     </g>
     <g id="text_17">
      <!-- 0.5 -->
      <g transform="translate(702.2575 630.936)scale(0.08 -0.08)">
       <use xlink:href="#DejaVuSans-30"/>
       <use xlink:href="#DejaVuSans-2e" x="63.623047"/>
       <use xlink:href="#DejaVuSans-35" x="95.410156"/>
      </g>
     </g>
    </g>
    <g id="ytick_11">
     <g id="line2d_18">
      <g>
       <use xlink:href="#md4bc1dd526" x="695.2575" y="555.79325" style="stroke: #000000; stroke-width: 0.8"/>
      </g>
     </g>
     <g id="text_18">
      <!-- 1.0 -->
      <g transform="translate(702.2575 558.832625)scale(0.08 -0.08)">
       <use xlink:href="#DejaVuSans-31"/>
       <use xlink:href="#DejaVuSans-2e" x="63.623047"/>
       <use xlink:href="#DejaVuSans-30" x="95.410156"/>
      </g>
     </g>
    </g>
    <g id="ytick_12">
     <g id="line2d_19">
      <g>
       <use xlink:href="#md4bc1dd526" x="695.2575" y="483.689875" style="stroke: #000000; stroke-width: 0.8"/>
      </g>
     </g>
     <g id="text_19">
      <!-- 1.5 -->
      <g transform="translate(702.2575 486.72925)scale(0.08 -0.08)">
       <use xlink:href="#DejaVuSans-31"/>
       <use xlink:href="#DejaVuSans-2e" x="63.623047"/>
       <use xlink:href="#DejaVuSans-35" x="95.410156"/>
      </g>
     </g>
    </g>
    <g id="ytick_13">
     <g id="line2d_20">
      <g>
       <use xlink:href="#md4bc1dd526" x="695.2575" y="411.5865" style="stroke: #000000; stroke-width: 0.8"/>
      </g>
     </g>
     <g id="text_20">
      <!-- 2.0 -->
      <g transform="translate(702.2575 414.625875)scale(0.08 -0.08)">
       <use xlink:href="#DejaVuSans-32"/>
       <use xlink:href="#DejaVuSans-2e" x="63.623047"/>
       <use xlink:href="#DejaVuSans-30" x="95.410156"/>
      </g>
     </g>
    </g>
    <g id="ytick_14">
     <g id="line2d_21">
      <g>
       <use xlink:href="#md4bc1dd526" x="695.2575" y="339.483125" style="stroke: #000000; stroke-width: 0.8"/>
      </g>
     </g>
     <g id="text_21">
      <!-- 2.5 -->
      <g transform="translate(702.2575 342.5225)scale(0.08 -0.08)">
       <use xlink:href="#DejaVuSans-32"/>
       <use xlink:href="#DejaVuSans-2e" x="63.623047"/>
       <use xlink:href="#DejaVuSans-35" x="95.410156"/>
      </g>
     </g>
    </g>
    <g id="ytick_15">
     <g id="line2d_22">
      <g>
       <use xlink:href="#md4bc1dd526" x="695.2575" y="267.379751" style="stroke: #000000; stroke-width: 0.8"/>
      </g>
     </g>
     <g id="text_22">
      <!-- 3.0 -->
      <g transform="translate(702.2575 270.419126)scale(0.08 -0.08)">
       <use xlink:href="#DejaVuSans-33"/>
       <use xlink:href="#DejaVuSans-2e" x="63.623047"/>
       <use xlink:href="#DejaVuSans-30" x="95.410156"/>
      </g>
     </g>
    </g>
    <g id="ytick_16">
     <g id="line2d_23">
      <g>
       <use xlink:href="#md4bc1dd526" x="695.2575" y="195.276376" style="stroke: #000000; stroke-width: 0.8"/>
      </g>
     </g>
     <g id="text_23">
      <!-- 3.5 -->
      <g transform="translate(702.2575 198.315751)scale(0.08 -0.08)">
       <use xlink:href="#DejaVuSans-33"/>
       <use xlink:href="#DejaVuSans-2e" x="63.623047"/>
       <use xlink:href="#DejaVuSans-35" x="95.410156"/>
      </g>
     </g>
    </g>
    <g id="text_24">
     <!-- $\mathregular {Satellite Chlorophyll (mgC/m^3)}$ -->
     <g transform="translate(726.26 482.56)rotate(-90)scale(0.08 -0.08)">
      <defs>
       <path id="DejaVuSans-53" d="M 3425 4513 
L 3425 3897 
Q 3066 4069 2747 4153 
Q 2428 4238 2131 4238 
Q 1616 4238 1336 4038 
Q 1056 3838 1056 3469 
Q 1056 3159 1242 3001 
Q 1428 2844 1947 2747 
L 2328 2669 
Q 3034 2534 3370 2195 
Q 3706 1856 3706 1288 
Q 3706 609 3251 259 
Q 2797 -91 1919 -91 
Q 1588 -91 1214 -16 
Q 841 59 441 206 
L 441 856 
Q 825 641 1194 531 
Q 1563 422 1919 422 
Q 2459 422 2753 634 
Q 3047 847 3047 1241 
Q 3047 1584 2836 1778 
Q 2625 1972 2144 2069 
L 1759 2144 
Q 1053 2284 737 2584 
Q 422 2884 422 3419 
Q 422 4038 858 4394 
Q 1294 4750 2059 4750 
Q 2388 4750 2728 4690 
Q 3069 4631 3425 4513 
z
" transform="scale(0.015625)"/>
       <path id="DejaVuSans-74" d="M 1172 4494 
L 1172 3500 
L 2356 3500 
L 2356 3053 
L 1172 3053 
L 1172 1153 
Q 1172 725 1289 603 
Q 1406 481 1766 481 
L 2356 481 
L 2356 0 
L 1766 0 
Q 1100 0 847 248 
Q 594 497 594 1153 
L 594 3053 
L 172 3053 
L 172 3500 
L 594 3500 
L 594 4494 
L 1172 4494 
z
" transform="scale(0.015625)"/>
      </defs>
      <use xlink:href="#DejaVuSans-53" transform="translate(0 0.765625)"/>
      <use xlink:href="#DejaVuSans-61" transform="translate(63.476562 0.765625)"/>
      <use xlink:href="#DejaVuSans-74" transform="translate(124.755859 0.765625)"/>
      <use xlink:href="#DejaVuSans-65" transform="translate(163.964844 0.765625)"/>
      <use xlink:href="#DejaVuSans-6c" transform="translate(225.488281 0.765625)"/>
      <use xlink:href="#DejaVuSans-6c" transform="translate(253.271484 0.765625)"/>
      <use xlink:href="#DejaVuSans-69" transform="translate(281.054688 0.765625)"/>
      <use xlink:href="#DejaVuSans-74" transform="translate(308.837891 0.765625)"/>
      <use xlink:href="#DejaVuSans-65" transform="translate(348.046875 0.765625)"/>
      <use xlink:href="#DejaVuSans-43" transform="translate(409.570312 0.765625)"/>
      <use xlink:href="#DejaVuSans-68" transform="translate(479.394531 0.765625)"/>
      <use xlink:href="#DejaVuSans-6c" transform="translate(542.773438 0.765625)"/>
      <use xlink:href="#DejaVuSans-6f" transform="translate(570.556641 0.765625)"/>
      <use xlink:href="#DejaVuSans-72" transform="translate(631.738281 0.765625)"/>
      <use xlink:href="#DejaVuSans-6f" transform="translate(672.851562 0.765625)"/>
      <use xlink:href="#DejaVuSans-70" transform="translate(734.033203 0.765625)"/>
      <use xlink:href="#DejaVuSans-68" transform="translate(797.509766 0.765625)"/>
      <use xlink:href="#DejaVuSans-79" transform="translate(860.888672 0.765625)"/>
      <use xlink:href="#DejaVuSans-6c" transform="translate(920.068359 0.765625)"/>
      <use xlink:href="#DejaVuSans-6c" transform="translate(947.851562 0.765625)"/>
      <use xlink:href="#DejaVuSans-28" transform="translate(975.634766 0.765625)"/>
      <use xlink:href="#DejaVuSans-6d" transform="translate(1014.648438 0.765625)"/>
      <use xlink:href="#DejaVuSans-67" transform="translate(1112.060547 0.765625)"/>
      <use xlink:href="#DejaVuSans-43" transform="translate(1175.537109 0.765625)"/>
      <use xlink:href="#DejaVuSans-2f" transform="translate(1245.361328 0.765625)"/>
      <use xlink:href="#DejaVuSans-6d" transform="translate(1279.052734 0.765625)"/>
      <use xlink:href="#DejaVuSans-33" transform="translate(1377.421875 39.046875)scale(0.7)"/>
      <use xlink:href="#DejaVuSans-29" transform="translate(1424.692383 0.765625)"/>
     </g>
    </g>
   </g>
   <g id="line2d_24">
    <path d="M 132.257197 674.510098 
L 135.037759 675.341054 
L 137.818322 661.733675 
L 143.379448 682.928421 
L 146.160011 673.901018 
L 148.940573 663.891996 
M 249.040833 674.411193 
L 253.559248 655.149515 
L 256.339811 634.727448 
L 259.120373 634.781057 
L 264.681499 627.889027 
L 267.462062 633.777416 
L 270.242624 642.408587 
L 275.80375 654.771081 
L 278.584313 653.830126 
M 370.342884 677.484287 
L 375.90401 631.81985 
L 378.337002 148 
L 383.550558 178.510788 
L 386.33112 215.691223 
L 389.111683 454.600215 
L 391.892246 663.328189 
L 397.453371 675.925136 
L 400.233934 675.30304 
L 403.014497 675.047362 
M 503.114757 683.511795 
L 507.633171 664.268697 
L 510.413734 673.053362 
L 513.194297 650.354098 
L 518.755423 632.759812 
L 521.535985 642.124603 
L 524.316548 630.469686 
L 529.877674 651.474976 
L 532.658236 662.505881 
M 645.618599 682.636106 
L 651.179725 687.184241 
L 653.960288 682.738253 
L 656.74085 684.592118 
L 662.301976 678.959767 
L 662.301976 678.959767 
" clip-path="url(#pd226b851e9)" style="fill: none; stroke: #000000; stroke-width: 3; stroke-linecap: square"/>
   </g>
   <g id="patch_7">
    <path d="M 104.6825 700 
L 104.6825 148 
" style="fill: none; stroke: #000000; stroke-width: 0.8; stroke-linejoin: miter; stroke-linecap: square"/>
   </g>
   <g id="patch_8">
    <path d="M 695.2575 700 
L 695.2575 148 
" style="fill: none; stroke: #000000; stroke-width: 0.8; stroke-linejoin: miter; stroke-linecap: square"/>
   </g>
   <g id="patch_9">
    <path d="M 104.6825 700 
L 695.2575 700 
" style="fill: none; stroke: #000000; stroke-width: 0.8; stroke-linejoin: miter; stroke-linecap: square"/>
   </g>
   <g id="patch_10">
    <path d="M 104.6825 148 
L 695.2575 148 
" style="fill: none; stroke: #000000; stroke-width: 0.8; stroke-linejoin: miter; stroke-linecap: square"/>
   </g>
  </g>
  <g id="axes_3">
   <g id="patch_11">
    <path d="M 792.6825 700 
L 1383.2575 700 
L 1383.2575 148 
L 792.6825 148 
L 792.6825 700 
z
" style="fill: none"/>
   </g>
   <g id="matplotlib.axis_4">
    <g id="xtick_6">
     <g id="line2d_25">
      <g>
       <use xlink:href="#mc3394e81bd" x="792.6825" y="700" style="stroke: #000000; stroke-width: 0.8"/>
      </g>
     </g>
     <g id="text_25">
      <!-- 2018-12-07 -->
      <g transform="translate(769.43625 713.07875)scale(0.08 -0.08)">
       <use xlink:href="#DejaVuSans-32"/>
       <use xlink:href="#DejaVuSans-30" x="63.623047"/>
       <use xlink:href="#DejaVuSans-31" x="127.246094"/>
       <use xlink:href="#DejaVuSans-38" x="190.869141"/>
       <use xlink:href="#DejaVuSans-2d" x="254.492188"/>
       <use xlink:href="#DejaVuSans-31" x="290.576172"/>
       <use xlink:href="#DejaVuSans-32" x="354.199219"/>
       <use xlink:href="#DejaVuSans-2d" x="417.822266"/>
       <use xlink:href="#DejaVuSans-30" x="453.90625"/>
       <use xlink:href="#DejaVuSans-37" x="517.529297"/>
      </g>
     </g>
    </g>
    <g id="xtick_7">
     <g id="line2d_26">
      <g>
       <use xlink:href="#mc3394e81bd" x="971.185731" y="700" style="stroke: #000000; stroke-width: 0.8"/>
      </g>
     </g>
     <g id="text_26">
      <!-- 2019-11-22 -->
      <g transform="translate(947.939481 713.07875)scale(0.08 -0.08)">
       <use xlink:href="#DejaVuSans-32"/>
       <use xlink:href="#DejaVuSans-30" x="63.623047"/>
       <use xlink:href="#DejaVuSans-31" x="127.246094"/>
       <use xlink:href="#DejaVuSans-39" x="190.869141"/>
       <use xlink:href="#DejaVuSans-2d" x="254.492188"/>
       <use xlink:href="#DejaVuSans-31" x="290.576172"/>
       <use xlink:href="#DejaVuSans-31" x="354.199219"/>
       <use xlink:href="#DejaVuSans-2d" x="417.822266"/>
       <use xlink:href="#DejaVuSans-32" x="453.90625"/>
       <use xlink:href="#DejaVuSans-32" x="517.529297"/>
      </g>
     </g>
    </g>
    <g id="xtick_8">
     <g id="line2d_27">
      <g>
       <use xlink:href="#mc3394e81bd" x="1149.688962" y="700" style="stroke: #000000; stroke-width: 0.8"/>
      </g>
     </g>
     <g id="text_27">
      <!-- 2020-11-06 -->
      <g transform="translate(1126.442712 713.07875)scale(0.08 -0.08)">
       <use xlink:href="#DejaVuSans-32"/>
       <use xlink:href="#DejaVuSans-30" x="63.623047"/>
       <use xlink:href="#DejaVuSans-32" x="127.246094"/>
       <use xlink:href="#DejaVuSans-30" x="190.869141"/>
       <use xlink:href="#DejaVuSans-2d" x="254.492188"/>
       <use xlink:href="#DejaVuSans-31" x="290.576172"/>
       <use xlink:href="#DejaVuSans-31" x="354.199219"/>
       <use xlink:href="#DejaVuSans-2d" x="417.822266"/>
       <use xlink:href="#DejaVuSans-30" x="453.90625"/>
       <use xlink:href="#DejaVuSans-36" x="517.529297"/>
      </g>
     </g>
    </g>
    <g id="xtick_9">
     <g id="line2d_28">
      <g>
       <use xlink:href="#mc3394e81bd" x="1328.192193" y="700" style="stroke: #000000; stroke-width: 0.8"/>
      </g>
     </g>
     <g id="text_28">
      <!-- 2021-10-22 -->
      <g transform="translate(1304.945943 713.07875)scale(0.08 -0.08)">
       <use xlink:href="#DejaVuSans-32"/>
       <use xlink:href="#DejaVuSans-30" x="63.623047"/>
       <use xlink:href="#DejaVuSans-32" x="127.246094"/>
       <use xlink:href="#DejaVuSans-31" x="190.869141"/>
       <use xlink:href="#DejaVuSans-2d" x="254.492188"/>
       <use xlink:href="#DejaVuSans-31" x="290.576172"/>
       <use xlink:href="#DejaVuSans-30" x="354.199219"/>
       <use xlink:href="#DejaVuSans-2d" x="417.822266"/>
       <use xlink:href="#DejaVuSans-32" x="453.90625"/>
       <use xlink:href="#DejaVuSans-32" x="517.529297"/>
      </g>
     </g>
    </g>
   </g>
   <g id="matplotlib.axis_5">
    <g id="ytick_17">
     <g id="line2d_29">
      <g>
       <use xlink:href="#m16b02c6c2b" x="792.6825" y="700" style="stroke: #000000; stroke-width: 0.8"/>
      </g>
     </g>
     <g id="text_29">
      <!-- 0.00 -->
      <g transform="translate(767.87 703.039375)scale(0.08 -0.08)">
       <use xlink:href="#DejaVuSans-30"/>
       <use xlink:href="#DejaVuSans-2e" x="63.623047"/>
       <use xlink:href="#DejaVuSans-30" x="95.410156"/>
       <use xlink:href="#DejaVuSans-30" x="159.033203"/>
      </g>
     </g>
    </g>
    <g id="ytick_18">
     <g id="line2d_30">
      <g>
       <use xlink:href="#m16b02c6c2b" x="792.6825" y="625.272313" style="stroke: #000000; stroke-width: 0.8"/>
      </g>
     </g>
     <g id="text_30">
      <!-- 0.25 -->
      <g transform="translate(767.87 628.311688)scale(0.08 -0.08)">
       <use xlink:href="#DejaVuSans-30"/>
       <use xlink:href="#DejaVuSans-2e" x="63.623047"/>
       <use xlink:href="#DejaVuSans-32" x="95.410156"/>
       <use xlink:href="#DejaVuSans-35" x="159.033203"/>
      </g>
     </g>
    </g>
    <g id="ytick_19">
     <g id="line2d_31">
      <g>
       <use xlink:href="#m16b02c6c2b" x="792.6825" y="550.544625" style="stroke: #000000; stroke-width: 0.8"/>
      </g>
     </g>
     <g id="text_31">
      <!-- 0.50 -->
      <g transform="translate(767.87 553.584)scale(0.08 -0.08)">
       <use xlink:href="#DejaVuSans-30"/>
       <use xlink:href="#DejaVuSans-2e" x="63.623047"/>
       <use xlink:href="#DejaVuSans-35" x="95.410156"/>
       <use xlink:href="#DejaVuSans-30" x="159.033203"/>
      </g>
     </g>
    </g>
    <g id="ytick_20">
     <g id="line2d_32">
      <g>
       <use xlink:href="#m16b02c6c2b" x="792.6825" y="475.816938" style="stroke: #000000; stroke-width: 0.8"/>
      </g>
     </g>
     <g id="text_32">
      <!-- 0.75 -->
      <g transform="translate(767.87 478.856313)scale(0.08 -0.08)">
       <use xlink:href="#DejaVuSans-30"/>
       <use xlink:href="#DejaVuSans-2e" x="63.623047"/>
       <use xlink:href="#DejaVuSans-37" x="95.410156"/>
       <use xlink:href="#DejaVuSans-35" x="159.033203"/>
      </g>
     </g>
    </g>
    <g id="ytick_21">
     <g id="line2d_33">
      <g>
       <use xlink:href="#m16b02c6c2b" x="792.6825" y="401.08925" style="stroke: #000000; stroke-width: 0.8"/>
      </g>
     </g>
     <g id="text_33">
      <!-- 1.00 -->
      <g transform="translate(767.87 404.128625)scale(0.08 -0.08)">
       <use xlink:href="#DejaVuSans-31"/>
       <use xlink:href="#DejaVuSans-2e" x="63.623047"/>
       <use xlink:href="#DejaVuSans-30" x="95.410156"/>
       <use xlink:href="#DejaVuSans-30" x="159.033203"/>
      </g>
     </g>
    </g>
    <g id="ytick_22">
     <g id="line2d_34">
      <g>
       <use xlink:href="#m16b02c6c2b" x="792.6825" y="326.361563" style="stroke: #000000; stroke-width: 0.8"/>
      </g>
     </g>
     <g id="text_34">
      <!-- 1.25 -->
      <g transform="translate(767.87 329.400938)scale(0.08 -0.08)">
       <use xlink:href="#DejaVuSans-31"/>
       <use xlink:href="#DejaVuSans-2e" x="63.623047"/>
       <use xlink:href="#DejaVuSans-32" x="95.410156"/>
       <use xlink:href="#DejaVuSans-35" x="159.033203"/>
      </g>
     </g>
    </g>
    <g id="ytick_23">
     <g id="line2d_35">
      <g>
       <use xlink:href="#m16b02c6c2b" x="792.6825" y="251.633875" style="stroke: #000000; stroke-width: 0.8"/>
      </g>
     </g>
     <g id="text_35">
      <!-- 1.50 -->
      <g transform="translate(767.87 254.67325)scale(0.08 -0.08)">
       <use xlink:href="#DejaVuSans-31"/>
       <use xlink:href="#DejaVuSans-2e" x="63.623047"/>
       <use xlink:href="#DejaVuSans-35" x="95.410156"/>
       <use xlink:href="#DejaVuSans-30" x="159.033203"/>
      </g>
     </g>
    </g>
    <g id="ytick_24">
     <g id="line2d_36">
      <g>
       <use xlink:href="#m16b02c6c2b" x="792.6825" y="176.906188" style="stroke: #000000; stroke-width: 0.8"/>
      </g>
     </g>
     <g id="text_36">
      <!-- 1.75 -->
      <g transform="translate(767.87 179.945563)scale(0.08 -0.08)">
       <use xlink:href="#DejaVuSans-31"/>
       <use xlink:href="#DejaVuSans-2e" x="63.623047"/>
       <use xlink:href="#DejaVuSans-37" x="95.410156"/>
       <use xlink:href="#DejaVuSans-35" x="159.033203"/>
      </g>
     </g>
    </g>
    <g id="text_37">
     <!-- $\mathregular {Mean Chlorophyll in upper 200m (mg/m^2)}$ -->
     <g transform="translate(762.19 501.2)rotate(-90)scale(0.08 -0.08)">
      <use xlink:href="#DejaVuSans-4d" transform="translate(0 0.765625)"/>
      <use xlink:href="#DejaVuSans-65" transform="translate(86.279297 0.765625)"/>
      <use xlink:href="#DejaVuSans-61" transform="translate(147.802734 0.765625)"/>
      <use xlink:href="#DejaVuSans-6e" transform="translate(209.082031 0.765625)"/>
      <use xlink:href="#DejaVuSans-43" transform="translate(272.460938 0.765625)"/>
      <use xlink:href="#DejaVuSans-68" transform="translate(342.285156 0.765625)"/>
      <use xlink:href="#DejaVuSans-6c" transform="translate(405.664062 0.765625)"/>
      <use xlink:href="#DejaVuSans-6f" transform="translate(433.447266 0.765625)"/>
      <use xlink:href="#DejaVuSans-72" transform="translate(494.628906 0.765625)"/>
      <use xlink:href="#DejaVuSans-6f" transform="translate(535.742188 0.765625)"/>
      <use xlink:href="#DejaVuSans-70" transform="translate(596.923828 0.765625)"/>
      <use xlink:href="#DejaVuSans-68" transform="translate(660.400391 0.765625)"/>
      <use xlink:href="#DejaVuSans-79" transform="translate(723.779297 0.765625)"/>
      <use xlink:href="#DejaVuSans-6c" transform="translate(782.958984 0.765625)"/>
      <use xlink:href="#DejaVuSans-6c" transform="translate(810.742188 0.765625)"/>
      <use xlink:href="#DejaVuSans-69" transform="translate(838.525391 0.765625)"/>
      <use xlink:href="#DejaVuSans-6e" transform="translate(866.308594 0.765625)"/>
      <use xlink:href="#DejaVuSans-75" transform="translate(929.6875 0.765625)"/>
      <use xlink:href="#DejaVuSans-70" transform="translate(993.066406 0.765625)"/>
      <use xlink:href="#DejaVuSans-70" transform="translate(1056.542969 0.765625)"/>
      <use xlink:href="#DejaVuSans-65" transform="translate(1120.019531 0.765625)"/>
      <use xlink:href="#DejaVuSans-72" transform="translate(1181.542969 0.765625)"/>
      <use xlink:href="#DejaVuSans-32" transform="translate(1222.65625 0.765625)"/>
      <use xlink:href="#DejaVuSans-30" transform="translate(1286.279297 0.765625)"/>
      <use xlink:href="#DejaVuSans-30" transform="translate(1349.902344 0.765625)"/>
      <use xlink:href="#DejaVuSans-6d" transform="translate(1413.525391 0.765625)"/>
      <use xlink:href="#DejaVuSans-28" transform="translate(1510.9375 0.765625)"/>
      <use xlink:href="#DejaVuSans-6d" transform="translate(1549.951172 0.765625)"/>
      <use xlink:href="#DejaVuSans-67" transform="translate(1647.363281 0.765625)"/>
      <use xlink:href="#DejaVuSans-2f" transform="translate(1710.839844 0.765625)"/>
      <use xlink:href="#DejaVuSans-6d" transform="translate(1744.53125 0.765625)"/>
      <use xlink:href="#DejaVuSans-32" transform="translate(1842.900391 39.046875)scale(0.7)"/>
      <use xlink:href="#DejaVuSans-29" transform="translate(1890.170898 0.765625)"/>
     </g>
    </g>
   </g>
   <g id="line2d_37">
    <path d="M 819.526818 669.280319 
L 824.624785 665.307201 
L 829.736565 663.569841 
L 834.894388 656.539952 
L 840.061419 661.028472 
L 845.199408 656.968552 
L 850.319334 658.659488 
L 855.477865 670.276777 
L 860.590353 657.87118 
L 865.736134 661.328262 
L 870.83658 670.586758 
L 875.920381 676.712418 
L 881.022244 681.162375 
L 886.106752 690.314519 
L 891.207199 690.826965 
L 896.294187 691.234178 
L 901.395342 692.695156 
L 906.476663 693.754586 
L 911.574984 694.262778 
L 916.649576 694.979092 
L 921.751085 695.051866 
L 926.793093 694.694441 
L 931.868393 693.496861 
L 936.950423 691.988202 
L 942.047682 689.155969 
L 947.133961 691.77573 
L 952.230512 686.325041 
L 957.309708 686.652702 
L 962.408029 683.06731 
L 967.485455 681.543201 
L 972.581297 652.67689 
L 977.664035 616.886765 
L 982.730835 618.200075 
L 987.905658 494.294375 
L 993.11271 528.817325 
L 998.232282 604.683952 
L 1003.379833 617.005956 
L 1008.49728 635.394035 
L 1013.599143 640.907636 
L 1018.765466 647.064908 
L 1023.860954 646.663671 
L 1028.990443 651.92101 
L 1034.119223 659.675729 
L 1039.2774 662.883346 
L 1044.403347 668.738447 
L 1049.519731 667.178342 
L 1054.622657 668.757103 
L 1059.738333 668.517231 
L 1064.864988 673.05361 
L 1069.945247 683.270396 
L 1075.047464 683.045915 
L 1080.131619 686.037901 
L 1085.231003 687.425557 
L 1090.32224 689.843368 
L 1095.393999 692.050473 
L 1100.448049 693.341382 
L 1105.511307 695.037925 
M 1115.608073 694.231682 
L 1120.659998 693.03838 
L 1125.741319 689.661364 
L 1130.830786 689.363854 
L 1135.913524 683.433977 
L 1141.012908 672.716706 
L 1146.088562 672.844871 
L 1151.165988 651.599361 
L 1156.249788 617.159093 
L 1161.330047 562.697401 
L 1166.501682 561.299176 
L 1171.601774 520.214138 
L 1176.703992 467.363322 
L 1181.822855 426.703688 
L 1186.967219 344.614016 
L 1192.11052 420.335033 
L 1197.205654 419.045325 
L 1202.302559 509.246189 
L 1207.418235 614.844654 
L 1212.545599 631.928484 
L 1217.669421 666.517909 
L 1222.809534 673.25484 
L 1227.967711 636.000933 
L 1233.066033 645.752327 
L 1238.225626 677.976512 
L 1243.333156 670.04333 
L 1248.493103 668.091934 
L 1253.640655 671.11794 
L 1258.759164 679.944277 
L 1263.878382 679.655613 
L 1269.00185 676.057292 
L 1274.112921 673.472831 
L 1279.250202 674.934361 
L 1284.443796 679.701604 
L 1289.598431 675.187862 
L 1294.745982 673.394573 
L 1299.942056 674.15522 
L 1305.114399 661.654873 
L 1310.232554 651.401388 
L 1315.337251 651.392492 
L 1320.457177 669.299432 
L 1325.602957 662.585089 
L 1330.758301 656.758414 
L 1335.871143 641.443377 
L 1341.022945 623.575096 
L 1346.164121 658.913835 
L 1351.286881 650.789597 
L 1356.413182 638.490612 
" clip-path="url(#p75458ae394)" style="fill: none; stroke: #008000; stroke-width: 3; stroke-linecap: square"/>
   </g>
   <g id="line2d_38">
    <path d="M 819.526818 700 
L 824.624785 700 
L 829.736565 700 
L 834.894388 700 
L 840.061419 700 
L 845.199408 700 
L 850.319334 700 
L 855.477865 700 
L 860.590353 700 
L 865.736134 700 
L 868.726502 -1 
M 969.593628 -1 
L 972.581297 700 
L 977.664035 700 
L 982.730835 700 
L 987.905658 700 
L 993.11271 700 
L 998.232282 700 
L 1003.379833 700 
L 1008.49728 700 
L 1013.599143 700 
L 1018.765466 700 
L 1023.860954 700 
L 1028.990443 700 
L 1034.119223 700 
L 1039.2774 700 
L 1044.403347 700 
L 1049.519731 700 
L 1054.622657 700 
L 1059.738333 700 
L 1062.744067 -1 
M 1148.189117 -1 
L 1151.165988 700 
L 1156.249788 700 
L 1161.330047 700 
L 1166.501682 700 
L 1171.601774 700 
L 1176.703992 700 
L 1181.822855 700 
L 1186.967219 700 
L 1192.11052 700 
L 1197.205654 700 
L 1202.302559 700 
L 1207.418235 700 
L 1212.545599 700 
L 1217.669421 700 
L 1222.809534 700 
L 1227.967711 700 
L 1233.066033 700 
L 1238.225626 700 
L 1243.333156 700 
L 1248.493103 700 
L 1253.640655 700 
L 1258.759164 700 
L 1263.878382 700 
L 1269.00185 700 
L 1274.112921 700 
L 1279.250202 700 
L 1284.443796 700 
L 1289.598431 700 
L 1294.745982 700 
L 1299.942056 700 
L 1305.114399 700 
L 1310.232554 700 
L 1315.337251 700 
L 1320.457177 700 
L 1325.602957 700 
L 1330.758301 700 
L 1335.871143 700 
L 1341.022945 700 
L 1346.164121 700 
L 1351.286881 700 
L 1356.413182 700 
" clip-path="url(#p75458ae394)" style="fill: none; stroke-dasharray: 2,3.3; stroke-dashoffset: 0; stroke: #0000cd; stroke-width: 2"/>
   </g>
   <g id="patch_12">
    <path d="M 792.6825 700 
L 792.6825 148 
" style="fill: none; stroke: #000000; stroke-width: 0.8; stroke-linejoin: miter; stroke-linecap: square"/>
   </g>
   <g id="patch_13">
    <path d="M 1383.2575 700 
L 1383.2575 148 
" style="fill: none; stroke: #000000; stroke-width: 0.8; stroke-linejoin: miter; stroke-linecap: square"/>
   </g>
   <g id="patch_14">
    <path d="M 792.6825 700 
L 1383.2575 700 
" style="fill: none; stroke: #000000; stroke-width: 0.8; stroke-linejoin: miter; stroke-linecap: square"/>
   </g>
   <g id="patch_15">
    <path d="M 792.6825 148 
L 1383.2575 148 
" style="fill: none; stroke: #000000; stroke-width: 0.8; stroke-linejoin: miter; stroke-linecap: square"/>
   </g>
   <g id="text_38">
    <!-- 5905991 -->
    <g transform="translate(1066.592 142)scale(0.096 -0.096)">
     <use xlink:href="#DejaVuSans-35"/>
     <use xlink:href="#DejaVuSans-39" x="63.623047"/>
     <use xlink:href="#DejaVuSans-30" x="127.246094"/>
     <use xlink:href="#DejaVuSans-35" x="190.869141"/>
     <use xlink:href="#DejaVuSans-39" x="254.492188"/>
     <use xlink:href="#DejaVuSans-39" x="318.115234"/>
     <use xlink:href="#DejaVuSans-31" x="381.738281"/>
    </g>
   </g>
  </g>
  <g id="axes_4">
   <g id="matplotlib.axis_6">
    <g id="ytick_25">
     <g id="line2d_39">
      <g>
       <use xlink:href="#md4bc1dd526" x="1383.2575" y="700" style="stroke: #000000; stroke-width: 0.8"/>
      </g>
     </g>
     <g id="text_39">
      <!-- 0.00 -->
      <g transform="translate(1390.2575 703.039375)scale(0.08 -0.08)">
       <use xlink:href="#DejaVuSans-30"/>
       <use xlink:href="#DejaVuSans-2e" x="63.623047"/>
       <use xlink:href="#DejaVuSans-30" x="95.410156"/>
       <use xlink:href="#DejaVuSans-30" x="159.033203"/>
      </g>
     </g>
    </g>
    <g id="ytick_26">
     <g id="line2d_40">
      <g>
       <use xlink:href="#md4bc1dd526" x="1383.2575" y="625.272313" style="stroke: #000000; stroke-width: 0.8"/>
      </g>
     </g>
     <g id="text_40">
      <!-- 0.25 -->
      <g transform="translate(1390.2575 628.311688)scale(0.08 -0.08)">
       <use xlink:href="#DejaVuSans-30"/>
       <use xlink:href="#DejaVuSans-2e" x="63.623047"/>
       <use xlink:href="#DejaVuSans-32" x="95.410156"/>
       <use xlink:href="#DejaVuSans-35" x="159.033203"/>
      </g>
     </g>
    </g>
    <g id="ytick_27">
     <g id="line2d_41">
      <g>
       <use xlink:href="#md4bc1dd526" x="1383.2575" y="550.544625" style="stroke: #000000; stroke-width: 0.8"/>
      </g>
     </g>
     <g id="text_41">
      <!-- 0.50 -->
      <g transform="translate(1390.2575 553.584)scale(0.08 -0.08)">
       <use xlink:href="#DejaVuSans-30"/>
       <use xlink:href="#DejaVuSans-2e" x="63.623047"/>
       <use xlink:href="#DejaVuSans-35" x="95.410156"/>
       <use xlink:href="#DejaVuSans-30" x="159.033203"/>
      </g>
     </g>
    </g>
    <g id="ytick_28">
     <g id="line2d_42">
      <g>
       <use xlink:href="#md4bc1dd526" x="1383.2575" y="475.816938" style="stroke: #000000; stroke-width: 0.8"/>
      </g>
     </g>
     <g id="text_42">
      <!-- 0.75 -->
      <g transform="translate(1390.2575 478.856313)scale(0.08 -0.08)">
       <use xlink:href="#DejaVuSans-30"/>
       <use xlink:href="#DejaVuSans-2e" x="63.623047"/>
       <use xlink:href="#DejaVuSans-37" x="95.410156"/>
       <use xlink:href="#DejaVuSans-35" x="159.033203"/>
      </g>
     </g>
    </g>
    <g id="ytick_29">
     <g id="line2d_43">
      <g>
       <use xlink:href="#md4bc1dd526" x="1383.2575" y="401.08925" style="stroke: #000000; stroke-width: 0.8"/>
      </g>
     </g>
     <g id="text_43">
      <!-- 1.00 -->
      <g transform="translate(1390.2575 404.128625)scale(0.08 -0.08)">
       <use xlink:href="#DejaVuSans-31"/>
       <use xlink:href="#DejaVuSans-2e" x="63.623047"/>
       <use xlink:href="#DejaVuSans-30" x="95.410156"/>
       <use xlink:href="#DejaVuSans-30" x="159.033203"/>
      </g>
     </g>
    </g>
    <g id="ytick_30">
     <g id="line2d_44">
      <g>
       <use xlink:href="#md4bc1dd526" x="1383.2575" y="326.361563" style="stroke: #000000; stroke-width: 0.8"/>
      </g>
     </g>
     <g id="text_44">
      <!-- 1.25 -->
      <g transform="translate(1390.2575 329.400938)scale(0.08 -0.08)">
       <use xlink:href="#DejaVuSans-31"/>
       <use xlink:href="#DejaVuSans-2e" x="63.623047"/>
       <use xlink:href="#DejaVuSans-32" x="95.410156"/>
       <use xlink:href="#DejaVuSans-35" x="159.033203"/>
      </g>
     </g>
    </g>
    <g id="ytick_31">
     <g id="line2d_45">
      <g>
       <use xlink:href="#md4bc1dd526" x="1383.2575" y="251.633875" style="stroke: #000000; stroke-width: 0.8"/>
      </g>
     </g>
     <g id="text_45">
      <!-- 1.50 -->
      <g transform="translate(1390.2575 254.67325)scale(0.08 -0.08)">
       <use xlink:href="#DejaVuSans-31"/>
       <use xlink:href="#DejaVuSans-2e" x="63.623047"/>
       <use xlink:href="#DejaVuSans-35" x="95.410156"/>
       <use xlink:href="#DejaVuSans-30" x="159.033203"/>
      </g>
     </g>
    </g>
    <g id="ytick_32">
     <g id="line2d_46">
      <g>
       <use xlink:href="#md4bc1dd526" x="1383.2575" y="176.906188" style="stroke: #000000; stroke-width: 0.8"/>
      </g>
     </g>
     <g id="text_46">
      <!-- 1.75 -->
      <g transform="translate(1390.2575 179.945563)scale(0.08 -0.08)">
       <use xlink:href="#DejaVuSans-31"/>
       <use xlink:href="#DejaVuSans-2e" x="63.623047"/>
       <use xlink:href="#DejaVuSans-37" x="95.410156"/>
       <use xlink:href="#DejaVuSans-35" x="159.033203"/>
      </g>
     </g>
    </g>
    <g id="text_47">
     <!-- $\mathregular {Satellite Chlorophyll (mgC/m^3)}$ -->
     <g transform="translate(1419.35 482.56)rotate(-90)scale(0.08 -0.08)">
      <use xlink:href="#DejaVuSans-53" transform="translate(0 0.765625)"/>
      <use xlink:href="#DejaVuSans-61" transform="translate(63.476562 0.765625)"/>
      <use xlink:href="#DejaVuSans-74" transform="translate(124.755859 0.765625)"/>
      <use xlink:href="#DejaVuSans-65" transform="translate(163.964844 0.765625)"/>
      <use xlink:href="#DejaVuSans-6c" transform="translate(225.488281 0.765625)"/>
      <use xlink:href="#DejaVuSans-6c" transform="translate(253.271484 0.765625)"/>
      <use xlink:href="#DejaVuSans-69" transform="translate(281.054688 0.765625)"/>
      <use xlink:href="#DejaVuSans-74" transform="translate(308.837891 0.765625)"/>
      <use xlink:href="#DejaVuSans-65" transform="translate(348.046875 0.765625)"/>
      <use xlink:href="#DejaVuSans-43" transform="translate(409.570312 0.765625)"/>
      <use xlink:href="#DejaVuSans-68" transform="translate(479.394531 0.765625)"/>
      <use xlink:href="#DejaVuSans-6c" transform="translate(542.773438 0.765625)"/>
      <use xlink:href="#DejaVuSans-6f" transform="translate(570.556641 0.765625)"/>
      <use xlink:href="#DejaVuSans-72" transform="translate(631.738281 0.765625)"/>
      <use xlink:href="#DejaVuSans-6f" transform="translate(672.851562 0.765625)"/>
      <use xlink:href="#DejaVuSans-70" transform="translate(734.033203 0.765625)"/>
      <use xlink:href="#DejaVuSans-68" transform="translate(797.509766 0.765625)"/>
      <use xlink:href="#DejaVuSans-79" transform="translate(860.888672 0.765625)"/>
      <use xlink:href="#DejaVuSans-6c" transform="translate(920.068359 0.765625)"/>
      <use xlink:href="#DejaVuSans-6c" transform="translate(947.851562 0.765625)"/>
      <use xlink:href="#DejaVuSans-28" transform="translate(975.634766 0.765625)"/>
      <use xlink:href="#DejaVuSans-6d" transform="translate(1014.648438 0.765625)"/>
      <use xlink:href="#DejaVuSans-67" transform="translate(1112.060547 0.765625)"/>
      <use xlink:href="#DejaVuSans-43" transform="translate(1175.537109 0.765625)"/>
      <use xlink:href="#DejaVuSans-2f" transform="translate(1245.361328 0.765625)"/>
      <use xlink:href="#DejaVuSans-6d" transform="translate(1279.052734 0.765625)"/>
      <use xlink:href="#DejaVuSans-33" transform="translate(1377.421875 39.046875)scale(0.7)"/>
      <use xlink:href="#DejaVuSans-29" transform="translate(1424.692383 0.765625)"/>
     </g>
    </g>
   </g>
   <g id="line2d_47">
    <path d="M 827.855903 670.737476 
L 836.016051 667.017854 
L 840.096125 674.238978 
L 844.176199 669.978818 
L 852.336347 665.973085 
M 997.688978 636.329155 
M 1009.929199 662.560717 
L 1014.009273 666.844905 
L 1018.089347 669.558311 
L 1022.169421 669.728204 
L 1030.329568 659.190001 
L 1034.409642 659.461199 
L 1038.489716 659.936841 
M 1164.972005 571.631752 
M 1180.272282 585.882799 
L 1188.43243 148 
L 1192.512504 358.315934 
L 1196.592578 402.177106 
L 1200.672652 360.947142 
L 1208.832799 630.340826 
L 1212.912873 627.815484 
L 1216.992947 648.417661 
L 1221.073021 630.563635 
L 1229.233169 654.705128 
M 1294.51435 658.712306 
L 1298.594424 658.976435 
L 1306.754572 644.093867 
L 1310.834646 642.402505 
L 1314.914719 652.72081 
L 1318.994793 643.945086 
L 1327.154941 639.262205 
L 1331.235015 508.988798 
L 1335.315089 588.812753 
L 1339.395163 618.816916 
L 1347.55531 639.721162 
L 1351.635384 648.61635 
L 1355.715458 645.752535 
" clip-path="url(#p75458ae394)" style="fill: none; stroke: #000000; stroke-width: 3; stroke-linecap: square"/>
   </g>
   <g id="patch_16">
    <path d="M 792.6825 700 
L 792.6825 148 
" style="fill: none; stroke: #000000; stroke-width: 0.8; stroke-linejoin: miter; stroke-linecap: square"/>
   </g>
   <g id="patch_17">
    <path d="M 1383.2575 700 
L 1383.2575 148 
" style="fill: none; stroke: #000000; stroke-width: 0.8; stroke-linejoin: miter; stroke-linecap: square"/>
   </g>
   <g id="patch_18">
    <path d="M 792.6825 700 
L 1383.2575 700 
" style="fill: none; stroke: #000000; stroke-width: 0.8; stroke-linejoin: miter; stroke-linecap: square"/>
   </g>
   <g id="patch_19">
    <path d="M 792.6825 148 
L 1383.2575 148 
" style="fill: none; stroke: #000000; stroke-width: 0.8; stroke-linejoin: miter; stroke-linecap: square"/>
   </g>
  </g>
  <g id="text_48">
   <!-- Float Integrated Chl vs Satellite [Chl] at closest pixel and time per profile -->
   <g transform="translate(417.589531 85.677187)scale(0.18 -0.18)">
    <defs>
     <path id="DejaVuSans-46" d="M 628 4666 
L 3309 4666 
L 3309 4134 
L 1259 4134 
L 1259 2759 
L 3109 2759 
L 3109 2228 
L 1259 2228 
L 1259 0 
L 628 0 
L 628 4666 
z
" transform="scale(0.015625)"/>
     <path id="DejaVuSans-20" transform="scale(0.015625)"/>
     <path id="DejaVuSans-49" d="M 628 4666 
L 1259 4666 
L 1259 0 
L 628 0 
L 628 4666 
z
" transform="scale(0.015625)"/>
     <path id="DejaVuSans-64" d="M 2906 2969 
L 2906 4863 
L 3481 4863 
L 3481 0 
L 2906 0 
L 2906 525 
Q 2725 213 2448 61 
Q 2172 -91 1784 -91 
Q 1150 -91 751 415 
Q 353 922 353 1747 
Q 353 2572 751 3078 
Q 1150 3584 1784 3584 
Q 2172 3584 2448 3432 
Q 2725 3281 2906 2969 
z
M 947 1747 
Q 947 1113 1208 752 
Q 1469 391 1925 391 
Q 2381 391 2643 752 
Q 2906 1113 2906 1747 
Q 2906 2381 2643 2742 
Q 2381 3103 1925 3103 
Q 1469 3103 1208 2742 
Q 947 2381 947 1747 
z
" transform="scale(0.015625)"/>
     <path id="DejaVuSans-76" d="M 191 3500 
L 800 3500 
L 1894 563 
L 2988 3500 
L 3597 3500 
L 2284 0 
L 1503 0 
L 191 3500 
z
" transform="scale(0.015625)"/>
     <path id="DejaVuSans-73" d="M 2834 3397 
L 2834 2853 
Q 2591 2978 2328 3040 
Q 2066 3103 1784 3103 
Q 1356 3103 1142 2972 
Q 928 2841 928 2578 
Q 928 2378 1081 2264 
Q 1234 2150 1697 2047 
L 1894 2003 
Q 2506 1872 2764 1633 
Q 3022 1394 3022 966 
Q 3022 478 2636 193 
Q 2250 -91 1575 -91 
Q 1294 -91 989 -36 
Q 684 19 347 128 
L 347 722 
Q 666 556 975 473 
Q 1284 391 1588 391 
Q 1994 391 2212 530 
Q 2431 669 2431 922 
Q 2431 1156 2273 1281 
Q 2116 1406 1581 1522 
L 1381 1569 
Q 847 1681 609 1914 
Q 372 2147 372 2553 
Q 372 3047 722 3315 
Q 1072 3584 1716 3584 
Q 2034 3584 2315 3537 
Q 2597 3491 2834 3397 
z
" transform="scale(0.015625)"/>
     <path id="DejaVuSans-5b" d="M 550 4863 
L 1875 4863 
L 1875 4416 
L 1125 4416 
L 1125 -397 
L 1875 -397 
L 1875 -844 
L 550 -844 
L 550 4863 
z
" transform="scale(0.015625)"/>
     <path id="DejaVuSans-5d" d="M 1947 4863 
L 1947 -844 
L 622 -844 
L 622 -397 
L 1369 -397 
L 1369 4416 
L 622 4416 
L 622 4863 
L 1947 4863 
z
" transform="scale(0.015625)"/>
     <path id="DejaVuSans-63" d="M 3122 3366 
L 3122 2828 
Q 2878 2963 2633 3030 
Q 2388 3097 2138 3097 
Q 1578 3097 1268 2742 
Q 959 2388 959 1747 
Q 959 1106 1268 751 
Q 1578 397 2138 397 
Q 2388 397 2633 464 
Q 2878 531 3122 666 
L 3122 134 
Q 2881 22 2623 -34 
Q 2366 -91 2075 -91 
Q 1284 -91 818 406 
Q 353 903 353 1747 
Q 353 2603 823 3093 
Q 1294 3584 2113 3584 
Q 2378 3584 2631 3529 
Q 2884 3475 3122 3366 
z
" transform="scale(0.015625)"/>
     <path id="DejaVuSans-78" d="M 3513 3500 
L 2247 1797 
L 3578 0 
L 2900 0 
L 1881 1375 
L 863 0 
L 184 0 
L 1544 1831 
L 300 3500 
L 978 3500 
L 1906 2253 
L 2834 3500 
L 3513 3500 
z
" transform="scale(0.015625)"/>
     <path id="DejaVuSans-66" d="M 2375 4863 
L 2375 4384 
L 1825 4384 
Q 1516 4384 1395 4259 
Q 1275 4134 1275 3809 
L 1275 3500 
L 2222 3500 
L 2222 3053 
L 1275 3053 
L 1275 0 
L 697 0 
L 697 3053 
L 147 3053 
L 147 3500 
L 697 3500 
L 697 3744 
Q 697 4328 969 4595 
Q 1241 4863 1831 4863 
L 2375 4863 
z
" transform="scale(0.015625)"/>
    </defs>
    <use xlink:href="#DejaVuSans-46"/>
    <use xlink:href="#DejaVuSans-6c" x="57.519531"/>
    <use xlink:href="#DejaVuSans-6f" x="85.302734"/>
    <use xlink:href="#DejaVuSans-61" x="146.484375"/>
    <use xlink:href="#DejaVuSans-74" x="207.763672"/>
    <use xlink:href="#DejaVuSans-20" x="246.972656"/>
    <use xlink:href="#DejaVuSans-49" x="278.759766"/>
    <use xlink:href="#DejaVuSans-6e" x="308.251953"/>
    <use xlink:href="#DejaVuSans-74" x="371.630859"/>
    <use xlink:href="#DejaVuSans-65" x="410.839844"/>
    <use xlink:href="#DejaVuSans-67" x="472.363281"/>
    <use xlink:href="#DejaVuSans-72" x="535.839844"/>
    <use xlink:href="#DejaVuSans-61" x="576.953125"/>
    <use xlink:href="#DejaVuSans-74" x="638.232422"/>
    <use xlink:href="#DejaVuSans-65" x="677.441406"/>
    <use xlink:href="#DejaVuSans-64" x="738.964844"/>
    <use xlink:href="#DejaVuSans-20" x="802.441406"/>
    <use xlink:href="#DejaVuSans-43" x="834.228516"/>
    <use xlink:href="#DejaVuSans-68" x="904.052734"/>
    <use xlink:href="#DejaVuSans-6c" x="967.431641"/>
    <use xlink:href="#DejaVuSans-20" x="995.214844"/>
    <use xlink:href="#DejaVuSans-76" x="1027.001953"/>
    <use xlink:href="#DejaVuSans-73" x="1086.181641"/>
    <use xlink:href="#DejaVuSans-20" x="1138.28125"/>
    <use xlink:href="#DejaVuSans-53" x="1170.068359"/>
    <use xlink:href="#DejaVuSans-61" x="1233.544922"/>
    <use xlink:href="#DejaVuSans-74" x="1294.824219"/>
    <use xlink:href="#DejaVuSans-65" x="1334.033203"/>
    <use xlink:href="#DejaVuSans-6c" x="1395.556641"/>
    <use xlink:href="#DejaVuSans-6c" x="1423.339844"/>
    <use xlink:href="#DejaVuSans-69" x="1451.123047"/>
    <use xlink:href="#DejaVuSans-74" x="1478.90625"/>
    <use xlink:href="#DejaVuSans-65" x="1518.115234"/>
    <use xlink:href="#DejaVuSans-20" x="1579.638672"/>
    <use xlink:href="#DejaVuSans-5b" x="1611.425781"/>
    <use xlink:href="#DejaVuSans-43" x="1650.439453"/>
    <use xlink:href="#DejaVuSans-68" x="1720.263672"/>
    <use xlink:href="#DejaVuSans-6c" x="1783.642578"/>
    <use xlink:href="#DejaVuSans-5d" x="1811.425781"/>
    <use xlink:href="#DejaVuSans-20" x="1850.439453"/>
    <use xlink:href="#DejaVuSans-61" x="1882.226562"/>
    <use xlink:href="#DejaVuSans-74" x="1943.505859"/>
    <use xlink:href="#DejaVuSans-20" x="1982.714844"/>
    <use xlink:href="#DejaVuSans-63" x="2014.501953"/>
    <use xlink:href="#DejaVuSans-6c" x="2069.482422"/>
    <use xlink:href="#DejaVuSans-6f" x="2097.265625"/>
    <use xlink:href="#DejaVuSans-73" x="2158.447266"/>
    <use xlink:href="#DejaVuSans-65" x="2210.546875"/>
    <use xlink:href="#DejaVuSans-73" x="2272.070312"/>
    <use xlink:href="#DejaVuSans-74" x="2324.169922"/>
    <use xlink:href="#DejaVuSans-20" x="2363.378906"/>
    <use xlink:href="#DejaVuSans-70" x="2395.166016"/>
    <use xlink:href="#DejaVuSans-69" x="2458.642578"/>
    <use xlink:href="#DejaVuSans-78" x="2486.425781"/>
    <use xlink:href="#DejaVuSans-65" x="2542.480469"/>
    <use xlink:href="#DejaVuSans-6c" x="2604.003906"/>
    <use xlink:href="#DejaVuSans-20" x="2631.787109"/>
    <use xlink:href="#DejaVuSans-61" x="2663.574219"/>
    <use xlink:href="#DejaVuSans-6e" x="2724.853516"/>
    <use xlink:href="#DejaVuSans-64" x="2788.232422"/>
    <use xlink:href="#DejaVuSans-20" x="2851.708984"/>
    <use xlink:href="#DejaVuSans-74" x="2883.496094"/>
    <use xlink:href="#DejaVuSans-69" x="2922.705078"/>
    <use xlink:href="#DejaVuSans-6d" x="2950.488281"/>
    <use xlink:href="#DejaVuSans-65" x="3047.900391"/>
    <use xlink:href="#DejaVuSans-20" x="3109.423828"/>
    <use xlink:href="#DejaVuSans-70" x="3141.210938"/>
    <use xlink:href="#DejaVuSans-65" x="3204.6875"/>
    <use xlink:href="#DejaVuSans-72" x="3266.210938"/>
    <use xlink:href="#DejaVuSans-20" x="3307.324219"/>
    <use xlink:href="#DejaVuSans-70" x="3339.111328"/>
    <use xlink:href="#DejaVuSans-72" x="3402.587891"/>
    <use xlink:href="#DejaVuSans-6f" x="3441.451172"/>
    <use xlink:href="#DejaVuSans-66" x="3502.632812"/>
    <use xlink:href="#DejaVuSans-69" x="3537.837891"/>
    <use xlink:href="#DejaVuSans-6c" x="3565.621094"/>
    <use xlink:href="#DejaVuSans-65" x="3593.404297"/>
   </g>
  </g>
 </g>
 <defs>
  <clipPath id="pd226b851e9">
   <rect x="104.6825" y="148" width="590.575" height="552"/>
  </clipPath>
  <clipPath id="p75458ae394">
   <rect x="792.6825" y="148" width="590.575" height="552"/>
  </clipPath>
 </defs>
</svg>
